<svg width="21" height="21" viewBox="0 0 21 21" fill="none" xmlns="http://www.w3.org/2000/svg">
<path d="M13.625 10.5C13.625 11.1181 13.4417 11.7223 13.0983 12.2362C12.755 12.7501 12.2669 13.1506 11.6959 13.3871C11.1249 13.6236 10.4965 13.6855 9.89034 13.565C9.28415 13.4444 8.72733 13.1467 8.29029 12.7097C7.85325 12.2727 7.55562 11.7158 7.43505 11.1097C7.31447 10.5035 7.37635 9.87513 7.61288 9.30411C7.8494 8.73309 8.24994 8.24504 8.76384 7.90166C9.27775 7.55828 9.88193 7.375 10.5 7.375C11.328 7.37758 12.1214 7.70764 12.7069 8.29314C13.2924 8.87863 13.6224 9.67199 13.625 10.5ZM20.2656 6.20312V14.7969C20.2656 16.2473 19.6895 17.6383 18.6639 18.6639C17.6383 19.6895 16.2473 20.2656 14.7969 20.2656H6.20312C4.75272 20.2656 3.36172 19.6895 2.33613 18.6639C1.31055 17.6383 0.734375 16.2473 0.734375 14.7969V6.20312C0.734375 4.75272 1.31055 3.36172 2.33613 2.33613C3.36172 1.31055 4.75272 0.734375 6.20312 0.734375H14.7969C16.2473 0.734375 17.6383 1.31055 18.6639 2.33613C19.6895 3.36172 20.2656 4.75272 20.2656 6.20312ZM15.1875 10.5C15.1875 9.5729 14.9126 8.66662 14.3975 7.89576C13.8824 7.12491 13.1504 6.5241 12.2938 6.16931C11.4373 5.81453 10.4948 5.7217 9.58551 5.90257C8.67623 6.08344 7.841 6.52988 7.18544 7.18544C6.52988 7.841 6.08344 8.67623 5.90257 9.58551C5.7217 10.4948 5.81453 11.4373 6.16931 12.2938C6.5241 13.1504 7.12491 13.8824 7.89576 14.3975C8.66662 14.9126 9.5729 15.1875 10.5 15.1875C11.7432 15.1875 12.9355 14.6936 13.8146 13.8146C14.6936 12.9355 15.1875 11.7432 15.1875 10.5ZM16.75 5.42188C16.75 5.1901 16.6813 4.96353 16.5525 4.77082C16.4237 4.5781 16.2407 4.4279 16.0266 4.3392C15.8124 4.25051 15.5768 4.2273 15.3495 4.27252C15.1222 4.31773 14.9134 4.42934 14.7495 4.59323C14.5856 4.75712 14.474 4.96593 14.4288 5.19325C14.3835 5.42057 14.4068 5.6562 14.4955 5.87033C14.5842 6.08446 14.7344 6.26749 14.9271 6.39625C15.1198 6.52502 15.3463 6.59375 15.5781 6.59375C15.8889 6.59375 16.187 6.47028 16.4068 6.25052C16.6265 6.03075 16.75 5.73268 16.75 5.42188Z" fill="black"/>
</svg>
