<svg width="23" height="25" viewBox="0 0 23 25" fill="none" xmlns="http://www.w3.org/2000/svg">
<path d="M12.0469 0.0208333C13.4115 0 14.7656 0.0104167 16.1198 0C16.2031 1.59375 16.7761 3.21875 17.9427 4.34375C19.1094 5.5 20.7552 6.03125 22.3594 6.20833V10.4063C20.8594 10.3542 19.349 10.0417 17.9844 9.39583C17.3906 9.125 16.8386 8.78125 16.2969 8.42708C16.2865 11.4688 16.3073 14.5104 16.2761 17.5417C16.1927 19 15.7136 20.4479 14.8698 21.6458C13.5052 23.6458 11.1406 24.9479 8.71356 24.9896C7.22398 25.0729 5.7344 24.6667 4.46357 23.9167C2.3594 22.6771 0.880232 20.4063 0.661482 17.9688C0.640649 17.4479 0.630232 16.9271 0.651065 16.4167C0.838565 14.4375 1.81773 12.5417 3.33857 11.25C5.06773 9.75 7.4844 9.03125 9.74481 9.45833C9.76565 11 9.70315 12.5417 9.70315 14.0833C8.6719 13.75 7.46357 13.8438 6.55732 14.4688C5.90107 14.8958 5.40107 15.5521 5.14065 16.2917C4.9219 16.8229 4.9844 17.4063 4.99482 17.9688C5.24482 19.6771 6.89065 21.1146 8.64065 20.9583C9.80732 20.9479 10.9219 20.2708 11.5261 19.2813C11.724 18.9375 11.9427 18.5833 11.9531 18.1771C12.0573 16.3125 12.0156 14.4583 12.0261 12.5938C12.0365 8.39583 12.0156 4.20833 12.0469 0.0208333Z" fill="black"/>
</svg>
