<svg width="23" height="18" viewBox="0 0 23 18" fill="none" xmlns="http://www.w3.org/2000/svg">
<path d="M22.3959 2.24984C21.5938 2.61442 20.7292 2.854 19.8334 2.96859C20.75 2.4165 21.4584 1.5415 21.7917 0.489421C20.9271 1.01025 19.9688 1.37484 18.9584 1.58317C18.1354 0.687337 16.9792 0.166504 15.6667 0.166504C13.2188 0.166504 11.2188 2.1665 11.2188 4.63525C11.2188 4.98942 11.2604 5.33317 11.3334 5.65609C7.62502 5.46859 4.32294 3.68734 2.12502 0.989421C1.7396 1.64567 1.52085 2.4165 1.52085 3.229C1.52085 4.78109 2.3021 6.15609 3.51044 6.93734C2.77085 6.93734 2.08335 6.729 1.47919 6.4165V6.44775C1.47919 8.61442 3.02085 10.4269 5.06252 10.8332C4.40703 11.0126 3.71887 11.0375 3.0521 10.9061C3.33503 11.7941 3.88912 12.5711 4.6365 13.1279C5.38387 13.6847 6.28694 13.9933 7.21877 14.0103C5.63922 15.2607 3.68127 15.9366 1.66669 15.9269C1.31252 15.9269 0.958354 15.9061 0.604187 15.8644C2.58335 17.1353 4.93752 17.8748 7.45835 17.8748C15.6667 17.8748 20.1771 11.0623 20.1771 5.15609C20.1771 4.95817 20.1771 4.77067 20.1667 4.57275C21.0417 3.94775 21.7917 3.15609 22.3959 2.24984Z" fill="black"/>
</svg>
