<svg width="317" height="206" viewBox="0 0 317 206" fill="none" xmlns="http://www.w3.org/2000/svg">
<g opacity="0.7" clip-path="url(#clip0_5_141)">
<path d="M-7.62939e-06 96.716C-0.000469208 104.912 3.09005 112.806 8.65374 118.82C14.2174 124.834 21.8443 128.525 30.0097 129.155C30.2849 129.176 30.5641 129.197 30.8433 129.209V98.3302C30.843 98.0216 30.9117 97.7169 31.0444 97.4383C31.1771 97.1597 31.3704 96.9143 31.6102 96.7202C31.6378 96.6917 31.6686 96.6666 31.702 96.6451C31.7322 96.6205 31.7642 96.5982 31.7978 96.5784C32.0906 96.3898 32.426 96.2776 32.7733 96.2521C33.1206 96.2266 33.4688 96.2886 33.786 96.4324L34.1319 95.6732C33.7537 95.5009 33.343 95.4113 32.9273 95.4104L56.6683 74.9427C56.485 74.7341 56.2933 74.5297 56.1015 74.3254C51.6258 69.6038 45.838 66.3339 39.486 64.9382C33.1341 63.5425 26.5098 64.0851 20.4692 66.496C14.4286 68.9069 9.24921 73.0752 5.60028 78.4623C1.95136 83.8495 0.00056839 90.2079 -7.62939e-06 96.716Z" fill="#F2F2F2"/>
<path d="M308.757 118.901C308.875 118.297 308.859 117.675 308.711 117.078C308.563 116.481 308.285 115.924 307.899 115.446C307.512 114.968 307.025 114.58 306.473 114.311C305.92 114.041 305.316 113.896 304.701 113.886L285.961 91.5605L281.282 97.5469L300.381 118.324C300.432 119.359 300.861 120.338 301.585 121.078C302.31 121.817 303.281 122.265 304.313 122.336C305.345 122.407 306.368 122.096 307.187 121.463C308.006 120.83 308.564 119.919 308.757 118.901Z" fill="#FFB8B8"/>
<path d="M219.766 91.4222C219.897 91.6121 220.013 91.812 220.113 92.0201L240.575 94.9472L243.682 90.9994L250.249 94.9136L244.076 104.544L219.12 97.1822C218.462 97.7788 217.637 98.1606 216.757 98.2769C215.876 98.3931 214.981 98.2383 214.19 97.833C213.399 97.4277 212.751 96.7912 212.33 96.008C211.91 95.2248 211.738 94.3321 211.837 93.4487C211.936 92.5652 212.301 91.7329 212.885 91.0623C213.468 90.3917 214.241 89.9147 215.102 89.6948C215.963 89.4748 216.87 89.5222 217.703 89.8308C218.536 90.1394 219.255 90.6945 219.766 91.4222Z" fill="#FFB8B8"/>
<path d="M254.719 166.015L251.098 169.623L235.468 157.363L240.812 152.038L254.719 166.015Z" fill="#FFB8B8"/>
<path d="M247.462 179.947L258.843 168.607L254.465 164.207L247.481 171.165C246.904 171.741 246.445 172.424 246.132 173.177C245.818 173.93 245.656 174.737 245.654 175.552C245.653 176.368 245.811 177.175 246.122 177.929C246.432 178.683 246.887 179.369 247.462 179.947Z" fill="#2F2E41"/>
<path d="M273.967 200.623H268.857L266.426 180.899H273.968L273.967 200.623Z" fill="#FFB8B8"/>
<path d="M259.002 205.371L275.062 205.372L275.062 199.162L265.207 199.162C264.392 199.162 263.586 199.322 262.833 199.634C262.08 199.946 261.396 200.404 260.82 200.98C260.243 201.557 259.786 202.241 259.474 202.995C259.163 203.748 259.002 204.556 259.002 205.371Z" fill="#2F2E41"/>
<path d="M275.078 185.389L280.898 142.432C281.809 135.94 281.526 129.336 280.064 122.946C278.87 117.81 277.256 114.253 275.268 112.373C274.954 112.079 274.553 111.895 274.125 111.851L254.907 109.848C254.537 109.81 254.164 109.878 253.831 110.044C253.498 110.211 253.22 110.469 253.028 110.788L252.396 111.841C252.319 111.969 252.257 112.105 252.212 112.247L248.148 124.852C248.088 125.043 247.99 125.219 247.861 125.372C247.731 125.524 247.573 125.649 247.395 125.739C240.998 129.008 220.218 140.041 221.407 144.801C222.524 149.274 232.985 156.526 236.165 158.642C236.489 158.859 236.87 158.973 237.26 158.97C237.649 158.967 238.029 158.847 238.349 158.626L243.627 155.012C243.885 154.836 244.097 154.6 244.245 154.325C244.393 154.05 244.473 153.743 244.478 153.431C244.484 153.118 244.414 152.809 244.276 152.529C244.138 152.249 243.934 152.006 243.683 151.821L240.043 149.137C239.82 148.972 239.647 148.75 239.541 148.495C239.435 148.239 239.4 147.959 239.441 147.685C239.482 147.411 239.597 147.154 239.773 146.94C239.95 146.727 240.181 146.566 240.442 146.474L259.989 139.61C260.209 139.533 260.443 139.507 260.674 139.535C260.905 139.563 261.127 139.643 261.322 139.77C261.517 139.896 261.68 140.066 261.799 140.266C261.919 140.466 261.99 140.691 262.009 140.923L265.614 185.006C265.653 185.479 265.863 185.921 266.203 186.251C266.544 186.581 266.992 186.777 267.465 186.802L273.042 187.081C273.076 187.082 273.109 187.083 273.143 187.083C273.616 187.085 274.074 186.914 274.43 186.602C274.786 186.29 275.017 185.859 275.078 185.389Z" fill="#2F2E41"/>
<path d="M266.264 74.2815C260.61 74.2815 256.027 69.6947 256.027 64.0367C256.027 58.3787 260.61 53.792 266.264 53.792C271.918 53.792 276.501 58.3787 276.501 64.0367C276.501 69.6947 271.918 74.2815 266.264 74.2815Z" fill="#FFB8B8"/>
<path d="M275.839 110.619L283.375 83.1039L283.246 83.0168C283.084 82.9076 266.842 72.1746 247.826 80.824L247.481 81.0219L251.946 109.58C252.044 110.232 252.365 110.83 252.855 111.269C253.346 111.709 253.974 111.964 254.632 111.99L273.006 112.697C273.043 112.698 273.08 112.699 273.117 112.699C273.736 112.701 274.339 112.498 274.831 112.121C275.323 111.745 275.678 111.217 275.839 110.619Z" fill="#CCCCCC"/>
<path d="M283.661 101.016L289.937 93.7938C290.24 93.4468 290.41 93.0041 290.418 92.5439C290.426 92.0836 290.272 91.6352 289.982 91.2777L283.421 83.167L278.385 84.5416L275.714 93.8941L280.583 100.854C280.753 101.099 280.976 101.301 281.236 101.445C281.496 101.589 281.786 101.672 282.083 101.687C282.118 101.688 282.153 101.689 282.188 101.689C282.467 101.69 282.744 101.63 282.998 101.514C283.252 101.398 283.479 101.228 283.661 101.016Z" fill="#CCCCCC"/>
<path d="M248.956 99.5115C249.253 99.4968 249.543 99.4141 249.803 99.2699C250.063 99.1256 250.287 98.9236 250.456 98.6793L255.325 91.719L252.983 81.8741L248.346 80.6084L247.481 81.0216L241.058 89.1026C240.768 89.4601 240.613 89.9085 240.622 90.3688C240.63 90.829 240.8 91.2717 241.102 91.6187L247.378 98.8412C247.561 99.0528 247.787 99.2225 248.041 99.3387C248.296 99.4548 248.572 99.5146 248.851 99.5141C248.886 99.5141 248.921 99.5132 248.956 99.5115Z" fill="#CCCCCC"/>
<path d="M30.8433 96.2865C30.8394 96.3904 30.8753 96.4918 30.9434 96.5702C31.0153 96.6543 31.1175 96.7063 31.2277 96.7149C31.3379 96.7235 31.447 96.688 31.531 96.6161L32.9273 95.4106L56.6683 74.9429L123.256 17.5272C123.636 17.2018 124.12 17.0233 124.62 17.024C125.12 17.0248 125.603 17.2048 125.982 17.5314L215.653 95.4941L216.462 96.1948C216.493 96.2223 216.528 96.2448 216.566 96.2615C216.633 96.2911 216.706 96.3026 216.779 96.2949C216.883 96.2838 216.979 96.2348 217.049 96.1573C217.086 96.1162 217.113 96.0684 217.131 96.0166C217.149 95.9649 217.156 95.9101 217.153 95.8554C217.149 95.8008 217.135 95.7474 217.111 95.6982C217.087 95.6491 217.053 95.6052 217.012 95.5691L216.899 95.469L126.528 16.9015C125.997 16.4451 125.321 16.1934 124.621 16.1919C123.921 16.1904 123.244 16.4391 122.711 16.8932L56.1015 74.3255L30.9892 95.9821C30.9453 96.0201 30.9098 96.0668 30.8846 96.1191C30.8595 96.1715 30.8455 96.2285 30.8433 96.2865Z" fill="#3F3D56"/>
<path d="M81.4722 108.604L82.5685 105.584L86.3448 95.1562L94.4807 72.703L103.575 47.6053L119.976 2.33593C120.299 1.45314 120.957 0.73404 121.808 0.336109C122.658 -0.0618214 123.632 -0.106154 124.515 0.21282L219.342 34.6205C220.224 34.9425 220.943 35.6014 221.341 36.4529C221.738 37.3044 221.783 38.2789 221.463 39.1629L198.21 103.34L197.814 104.437L173.406 115.507L166.546 118.619L165.433 119.124L136.386 132.3L135.261 131.891L116.209 124.98L87.47 114.552L83.5979 113.146C82.7151 112.825 81.9957 112.166 81.5973 111.315C81.1989 110.463 81.1539 109.488 81.4722 108.604Z" fill="#E6E6E6"/>
<path d="M121.235 55.1469C121.708 53.8477 122.677 52.7892 123.928 52.2035C125.18 51.6179 126.613 51.5528 127.912 52.0227L165.433 65.6415L183.551 72.2152C184.195 72.448 184.787 72.8056 185.292 73.2674C185.798 73.7292 186.207 74.2862 186.498 74.9065C186.788 75.5269 186.954 76.1985 186.984 76.8828C187.015 77.5672 186.911 78.2509 186.678 78.8949C186.444 79.5389 186.087 80.1306 185.625 80.6362C185.163 81.1417 184.606 81.5512 183.986 81.8411C183.365 82.1311 182.694 82.296 182.01 82.3262C181.326 82.3564 180.643 82.2515 180 82.0173L165.433 76.7325L124.357 61.829C123.059 61.3557 122.001 60.3864 121.416 59.1337C120.831 57.8811 120.766 56.4474 121.235 55.1469Z" fill="white"/>
<path d="M114.629 73.3827C115.102 72.0835 116.07 71.025 117.322 70.4394C118.574 69.8537 120.006 69.7887 121.306 70.2585L127.662 72.5652L165.433 86.2715L176.945 90.4468C178.243 90.919 179.301 91.8877 179.886 93.1399C180.471 94.3922 180.535 95.8256 180.064 97.1252C179.594 98.4249 178.627 99.4843 177.376 100.071C176.125 100.657 174.693 100.723 173.394 100.253L165.433 97.3626L117.751 80.0607C117.642 80.0231 117.538 79.9773 117.434 79.9314C116.223 79.3998 115.26 78.4275 114.739 77.2114C114.218 75.9954 114.179 74.6267 114.629 73.3827Z" fill="white"/>
<path d="M107.952 91.8109C108.424 90.5119 109.391 89.4534 110.642 88.8677C111.893 88.282 113.326 88.2169 114.625 88.6867L132.451 95.1561L146.252 100.166L165.433 107.123L170.268 108.879C171.385 109.287 172.33 110.063 172.946 111.081C173.562 112.099 173.813 113.297 173.656 114.477C173.609 114.828 173.525 115.173 173.406 115.507L166.546 118.619L165.433 118.214H165.424L130.617 105.584L111.074 98.493C109.775 98.0206 108.716 97.0515 108.131 95.7985C107.545 94.5456 107.481 93.1113 107.952 91.8109Z" fill="white"/>
<path d="M147.018 37.2191C147.491 35.9199 148.46 34.8614 149.712 34.2758C150.963 33.6901 152.396 33.6251 153.696 34.0949L175.244 41.9116C176.543 42.3838 177.6 43.3525 178.185 44.6048C178.77 45.857 178.834 47.2905 178.364 48.5901C177.893 49.8897 176.926 50.9491 175.675 51.5357C174.425 52.1222 172.992 52.1878 171.693 51.718L164.874 49.2445L160.36 47.6053L150.14 43.8971C148.842 43.4247 147.785 42.4562 147.199 41.2042C146.614 39.9522 146.549 38.519 147.018 37.2191Z" fill="white"/>
<path d="M61.024 47.6055H161.89C162.485 47.6061 163.07 47.7565 163.592 48.043C164.113 48.3295 164.554 48.7428 164.874 49.2447C165.24 49.813 165.434 50.4749 165.433 51.1509V119.124L136.386 132.3L132.293 134.157L125.828 137.089C125.45 137.26 125.039 137.349 124.624 137.349C124.208 137.349 123.798 137.26 123.419 137.089L116.955 134.157L96.7231 124.98L77.8669 116.425L57.4812 107.182V51.1509C57.4818 50.2108 57.8553 49.3093 58.5195 48.6446C59.1838 47.9798 60.0846 47.6061 61.024 47.6055Z" fill="#1D741B"/>
<path d="M81.8641 95.1562H141.05C142.396 95.157 143.689 95.6791 144.659 96.6129C145.628 97.5468 146.199 98.82 146.252 100.166C146.259 100.234 146.261 100.302 146.26 100.37C146.258 101.752 145.708 103.077 144.732 104.055C143.755 105.032 142.431 105.582 141.05 105.584H81.8641C80.4823 105.584 79.1571 105.035 78.18 104.057C77.2029 103.079 76.654 101.753 76.654 100.37C76.654 98.9874 77.2029 97.6612 78.18 96.6834C79.1571 95.7056 80.4823 95.1562 81.8641 95.1562Z" fill="white"/>
<path d="M78.4921 115.795C79.4316 114.99 80.6278 114.55 81.8642 114.552H141.05C142.432 114.552 143.757 115.101 144.734 116.079C145.711 117.057 146.26 118.383 146.26 119.766C146.26 121.149 145.711 122.475 144.734 123.452C143.757 124.43 142.432 124.98 141.05 124.98H96.7231L77.8669 116.425C78.0571 116.197 78.2663 115.987 78.4921 115.795Z" fill="white"/>
<path d="M132.293 134.156L125.828 137.089C125.45 137.26 125.039 137.348 124.624 137.348C124.208 137.348 123.798 137.26 123.419 137.089L116.955 134.156H132.293Z" fill="white"/>
<path d="M95.1017 72.9284C95.4685 71.9247 96.1346 71.058 97.0098 70.4455C97.885 69.833 98.9271 69.5043 99.995 69.5039H122.919C123.92 69.5048 124.899 69.794 125.74 70.3369C126.582 70.8798 127.249 71.6534 127.662 72.5655C127.971 73.2409 128.13 73.9751 128.129 74.7178C128.127 76.1 127.578 77.4251 126.601 78.4025C125.624 79.3799 124.3 79.9298 122.919 79.9317H99.995C99.1569 79.9318 98.3311 79.7295 97.5878 79.342C96.8444 78.9545 96.2055 78.3932 95.7252 77.7058C95.2449 77.0185 94.9374 76.2252 94.8289 75.3935C94.7203 74.5618 94.8139 73.7162 95.1017 72.9284Z" fill="white"/>
<path d="M98.7446 124.98L118.976 134.156L123.765 136.33C124.035 136.451 124.328 136.514 124.624 136.514C124.92 136.514 125.212 136.451 125.482 136.33L130.271 134.156H132.293L125.828 137.089C125.45 137.26 125.039 137.348 124.624 137.348C124.208 137.348 123.798 137.26 123.419 137.089L116.955 134.156L96.723 124.98H98.7446ZM98.7446 124.98L118.976 134.156L123.765 136.33C124.035 136.451 124.328 136.514 124.624 136.514C124.92 136.514 125.212 136.451 125.482 136.33L130.271 134.156H132.293L125.828 137.089C125.45 137.26 125.039 137.348 124.624 137.348C124.208 137.348 123.798 137.26 123.419 137.089L116.955 134.156L96.723 124.98H98.7446ZM98.7446 124.98L118.976 134.156L123.765 136.33C124.035 136.451 124.328 136.514 124.624 136.514C124.92 136.514 125.212 136.451 125.482 136.33L130.271 134.156H132.293L125.828 137.089C125.45 137.26 125.039 137.348 124.624 137.348C124.208 137.348 123.798 137.26 123.419 137.089L116.955 134.156L96.723 124.98H98.7446ZM30.8433 96.2866C30.9971 96.1335 31.1661 95.9965 31.3476 95.8778C31.7571 95.6122 32.2269 95.4542 32.7136 95.4185C33.2003 95.3827 33.6881 95.4704 34.132 95.6735L78.492 115.795L98.7446 124.98L118.976 134.156L123.765 136.33C124.035 136.451 124.328 136.514 124.624 136.514C124.92 136.514 125.212 136.451 125.482 136.33L130.271 134.156L135.26 131.891L165.424 118.214L165.433 118.21L173.656 114.477L198.21 103.34L215.115 95.6735C215.287 95.5938 215.468 95.5337 215.653 95.4941C216.061 95.392 216.487 95.3835 216.899 95.4691C217.559 95.6041 218.151 95.9624 218.577 96.4837C219.003 97.0049 219.236 97.6572 219.238 98.3305V203.08C219.237 203.854 218.929 204.597 218.382 205.144C217.835 205.691 217.094 205.999 216.32 206H32.9273C32.1538 205.999 31.4122 205.691 30.8652 205.144C30.3182 204.597 30.0106 203.854 30.0097 203.08V98.3305C30.0083 97.566 30.3078 96.8318 30.8433 96.2866ZM30.8433 203.08C30.8436 203.633 31.0632 204.164 31.454 204.555C31.8447 204.946 32.3747 205.166 32.9273 205.166H216.32C216.873 205.166 217.403 204.946 217.793 204.555C218.184 204.164 218.404 203.633 218.404 203.08V98.3305C218.404 97.9819 218.316 97.6389 218.15 97.3329C217.983 97.0269 217.742 96.7675 217.45 96.5786C217.244 96.4466 217.017 96.3507 216.779 96.295C216.708 96.2798 216.637 96.2686 216.566 96.2616C216.485 96.2498 216.402 96.2442 216.32 96.2449C216.024 96.2453 215.731 96.3093 215.461 96.4326L197.814 104.437L173.406 115.507L166.546 118.619L165.433 119.124L136.386 132.3L132.293 134.156L125.828 137.089C125.45 137.26 125.039 137.348 124.624 137.348C124.208 137.348 123.798 137.26 123.419 137.089L116.955 134.156L96.723 124.98L77.8669 116.425L33.786 96.4326C33.4688 96.2888 33.1207 96.2268 32.7734 96.2523C32.4261 96.2778 32.0907 96.39 31.7979 96.5786C31.7643 96.5984 31.7322 96.6207 31.702 96.6453C31.6686 96.6668 31.6378 96.692 31.6102 96.7204C31.3705 96.9145 31.1772 97.1599 31.0445 97.4385C30.9118 97.7171 30.8431 98.0218 30.8434 98.3305L30.8433 203.08ZM98.7446 124.98L118.976 134.156L123.765 136.33C124.035 136.451 124.328 136.514 124.624 136.514C124.92 136.514 125.212 136.451 125.482 136.33L130.271 134.156H132.293L125.828 137.089C125.45 137.26 125.039 137.348 124.624 137.348C124.208 137.348 123.798 137.26 123.419 137.089L116.955 134.156L96.723 124.98H98.7446ZM98.7446 124.98L118.976 134.156L123.765 136.33C124.035 136.451 124.328 136.514 124.624 136.514C124.92 136.514 125.212 136.451 125.482 136.33L130.271 134.156H132.293L125.828 137.089C125.45 137.26 125.039 137.348 124.624 137.348C124.208 137.348 123.798 137.26 123.419 137.089L116.955 134.156L96.723 124.98H98.7446ZM166.546 118.619L165.433 119.124V118.214L166.546 118.619ZM98.7446 124.98L118.976 134.156L123.765 136.33C124.035 136.451 124.328 136.514 124.624 136.514C124.92 136.514 125.212 136.451 125.482 136.33L130.271 134.156H132.293L125.828 137.089C125.45 137.26 125.039 137.348 124.624 137.348C124.208 137.348 123.798 137.26 123.419 137.089L116.955 134.156L96.723 124.98H98.7446Z" fill="#3F3D56"/>
<path d="M243.84 206H290.939C291.05 206 291.156 205.956 291.234 205.878C291.312 205.799 291.356 205.693 291.356 205.583C291.356 205.472 291.312 205.366 291.234 205.288C291.156 205.209 291.05 205.166 290.939 205.166H243.84C243.73 205.166 243.624 205.209 243.546 205.288C243.468 205.366 243.424 205.472 243.424 205.583C243.424 205.693 243.468 205.799 243.546 205.878C243.624 205.956 243.73 206 243.84 206Z" fill="#3F3D56"/>
<path d="M270.157 71.5289C270.926 71.1384 271.565 70.5333 271.997 69.7867C272.43 69.0401 272.637 68.1841 272.593 67.3223C272.549 66.4604 272.257 65.6298 271.751 64.9308C271.246 64.2318 270.549 63.6944 269.744 63.3837C266.655 62.1907 263.192 64.6254 259.954 63.9332C256.726 63.2433 254.859 59.3819 255.63 56.1705C256.4 52.959 259.204 50.54 262.296 49.3848C264.315 48.6322 266.477 48.3437 268.623 48.5405C270.769 48.7373 272.843 49.4145 274.692 50.5219C276.522 51.6618 278.046 53.2317 279.131 55.0951C280.217 56.9585 280.831 59.059 280.921 61.2141C280.963 63.3711 280.436 65.5012 279.394 67.3897C278.352 69.2783 276.831 70.8587 274.984 71.9718C274.161 72.4465 273.203 72.8277 272.277 72.6139C271.518 72.3669 270.802 72.0007 270.157 71.5289Z" fill="#2F2E41"/>
<path d="M273.474 50.2721C276.198 46.6564 279.875 43.686 284.154 42.2133C288.433 40.7407 293.322 40.8589 297.341 42.9401C301.36 45.0212 304.357 49.1545 304.669 53.6719C305.19 61.1902 298.771 67.5811 298.112 75.0886C297.903 77.4682 298.289 79.8625 299.235 82.0557C300.181 84.2489 301.657 86.1721 303.531 87.6522C305.404 89.1323 307.616 90.1228 309.968 90.5344C312.319 90.946 314.736 90.7659 317 90.0101C315.387 91.3387 313.517 92.3192 311.508 92.8899C309.498 93.4607 307.392 93.6094 305.322 93.3267C303.256 93.0163 301.285 92.2496 299.551 91.0822C297.817 89.9148 296.365 88.376 295.3 86.5773C293.855 84.0652 293.262 81.1472 293.031 78.2579C292.669 73.6895 293.159 69.0936 294.476 64.7045C295.196 62.3098 296.173 59.8455 295.716 57.3868C295.456 56.108 294.826 54.9338 293.905 54.0103C292.983 53.0868 291.811 52.4546 290.533 52.1922C288.469 51.8051 286.358 52.4357 284.387 53.1614C282.415 53.8871 280.428 54.7269 278.328 54.7749C276.228 54.823 273.941 53.861 273.129 51.9222L273.474 50.2721Z" fill="#2F2E41"/>
</g>
<defs>
<clipPath id="clip0_5_141">
<rect width="317" height="206" fill="white" transform="matrix(-1 0 0 1 317 0)"/>
</clipPath>
</defs>
</svg>
